<?xml version="1.0" encoding="UTF-8"?>
<svg id="Layer_1" data-name="Layer 1" xmlns="http://www.w3.org/2000/svg" xmlns:xlink="http://www.w3.org/1999/xlink" viewBox="0 0 300 100">
  <defs>
    <style>
      .cls-1 {
        fill: url(#linear-gradient);
      }

      .cls-1, .cls-2, .cls-3 {
        stroke-width: 0px;
      }

      .cls-2 {
        fill: #8c99cd;
      }

      .cls-3 {
        fill: #282d33;
      }
    </style>
    <linearGradient id="linear-gradient" x1="44.87" y1="40.43" x2="102.87" y2="40.43" gradientTransform="translate(2 -3)" gradientUnits="userSpaceOnUse">
      <stop offset="0" stop-color="#ff2c6d"/>
      <stop offset="1" stop-color="#7fe4ff"/>
    </linearGradient>
  </defs>
  <g>
    <g>
      <circle class="cls-2" cx="84.16" cy="45.71" r="4.14"/>
      <circle class="cls-2" cx="100.73" cy="29.14" r="4.14"/>
      <circle class="cls-2" cx="84.16" cy="29.14" r="4.14"/>
      <circle class="cls-2" cx="67.59" cy="29.14" r="4.14"/>
      <circle class="cls-2" cx="51.01" cy="29.14" r="4.14"/>
      <circle class="cls-2" cx="51.01" cy="45.71" r="4.14"/>
    </g>
    <g>
      <circle class="cls-1" cx="84.16" cy="45.71" r="4.14"/>
      <circle class="cls-1" cx="100.73" cy="29.14" r="4.14"/>
      <circle class="cls-1" cx="84.16" cy="29.14" r="4.14"/>
      <circle class="cls-1" cx="67.59" cy="29.14" r="4.14"/>
      <circle class="cls-1" cx="51.01" cy="29.14" r="4.14"/>
      <circle class="cls-1" cx="51.01" cy="45.71" r="4.14"/>
    </g>
  </g>
  <g>
    <g>
      <rect class="cls-3" x="157.34" y="32.94" width="5.78" height="34.68" rx="2.89" ry="2.89"/>
      <rect class="cls-3" x="218.03" y="32.94" width="5.78" height="34.68" rx="2.89" ry="2.89"/>
      <path class="cls-3" d="M139.99,38.72c-2.2,0-4.25.66-6,1.79-.43-1.05-1.47-1.79-2.67-1.79-1.6,0-2.89,1.29-2.89,2.89v28.9c0,1.6,1.29,2.89,2.89,2.89s2.89-1.29,2.89-2.89v-4.55c1.7,1.05,3.67,1.66,5.78,1.66,6.38,0,11.56-5.55,11.56-12.39v-4.13c0-6.84-5.18-12.39-11.56-12.39ZM145.78,55.54c0,3.48-2.59,6.31-5.78,6.31s-5.78-2.82-5.78-6.31v-4.73c0-3.48,2.59-6.31,5.78-6.31s5.78,2.82,5.78,6.31v4.73Z"/>
      <path class="cls-3" d="M180.46,38.72h0c-6.38,0-11.56,5.55-11.56,12.39v4.13c0,6.84,5.18,12.39,11.56,12.39h0c6.38,0,11.56-5.55,11.56-12.39v-4.13c0-6.84-5.18-12.39-11.56-12.39ZM186.24,55.54c0,3.48-2.59,6.31-5.78,6.31s-5.78-2.82-5.78-6.31v-4.73c0-3.48,2.59-6.31,5.78-6.31s5.78,2.82,5.78,6.31v4.73Z"/>
      <path class="cls-3" d="M209.36,61.84c-3.19,0-5.78-2.59-5.78-5.78v-11.56h5.78c1.6,0,2.89-1.29,2.89-2.89s-1.29-2.89-2.89-2.89h-5.78v-2.89c0-1.6-1.29-2.89-2.89-2.89s-2.89,1.29-2.89,2.89v20.23c0,6.37,5.19,11.56,11.56,11.56,1.6,0,2.89-1.29,2.89-2.89s-1.29-2.89-2.89-2.89Z"/>
      <path class="cls-3" d="M249.95,38.96c-1.47-.63-3.17.05-3.8,1.52l-5.99,13.98-5.99-13.98c-.63-1.47-2.33-2.15-3.8-1.52-1.47.63-2.15,2.33-1.52,3.8l8.16,19.04-.97,2.26c-.88,2.11-2.92,3.51-5.21,3.56-1.6.04-2.86,1.36-2.82,2.96.04,1.57,1.32,2.82,2.89,2.82.02,0,.05,0,.07,0,4.57-.11,8.65-2.9,10.4-7.09l10.1-23.55c.63-1.47-.05-3.17-1.52-3.8Z"/>
    </g>
    <g>
      <path class="cls-3" d="M51.01,58.14c-2.29,0-4.14,1.85-4.14,4.14v16.57c0,2.29,1.85,4.14,4.14,4.14s4.14-1.85,4.14-4.14v-16.57c0-2.29-1.85-4.14-4.14-4.14Z"/>
      <path class="cls-3" d="M84.16,58.14c-2.29,0-4.14,1.85-4.14,4.14v16.57c0,2.29,1.85,4.14,4.14,4.14s4.14-1.85,4.14-4.14v-16.57c0-2.29-1.85-4.14-4.14-4.14Z"/>
      <path class="cls-3" d="M67.59,41.57c-2.29,0-4.14,1.85-4.14,4.14v33.14c0,2.29,1.85,4.14,4.14,4.14s4.14-1.85,4.14-4.14v-33.14c0-2.29-1.85-4.14-4.14-4.14Z"/>
      <path class="cls-3" d="M100.73,41.57c-2.29,0-4.14,1.85-4.14,4.14v33.14c0,2.29,1.85,4.14,4.14,4.14s4.14-1.85,4.14-4.14v-33.14c0-2.29-1.85-4.14-4.14-4.14Z"/>
    </g>
  </g>
</svg>